<svg width="101" height="146" viewBox="0 0 101 146" fill="none" xmlns="http://www.w3.org/2000/svg">
<mask id="path-1-outside-1" maskUnits="userSpaceOnUse" x="0" y="0" width="157" height="166" fill="black">
<rect fill="white" width="157" height="166"/>
<path d="M147.618 8.54521H105.547C104.461 6.28515 102.758 4.3779 100.635 3.04305C98.5118 1.70819 96.0551 1 93.5474 1C91.0396 1 88.5829 1.70819 86.46 3.04305C84.337 4.3779 82.6342 6.28515 81.5475 8.54521H39.4785C37.2811 8.5476 35.1744 9.42167 33.6208 10.9756C32.0672 12.5295 31.1935 14.6364 31.1916 16.8338V74.375C22.0998 80.4114 12.4838 85.6182 2.45965 89.9327L2.21032 90.0397C1.851 90.1942 1.54484 90.4505 1.32972 90.7771C1.1146 91.1038 0.999968 91.4863 1 91.8774V119.349C1 133.405 7.7259 145.758 20.4504 155.071C26.3077 159.349 32.8052 162.673 39.7018 164.92C40.0622 165.025 40.4451 165.027 40.8064 164.925C47.4559 162.836 53.7672 159.793 59.5428 155.891H147.618C149.815 155.889 151.921 155.015 153.475 153.461C155.028 151.908 155.902 149.801 155.904 147.604V16.8338C155.903 14.6364 155.029 12.5295 153.475 10.9756C151.922 9.42167 149.815 8.5476 147.618 8.54521ZM84.2308 19.9757V14.3175C84.2204 13.0874 84.4537 11.8674 84.9172 10.7279C85.3808 9.58846 86.0654 8.55207 86.9315 7.67856C87.7977 6.80504 88.8283 6.11171 89.9638 5.63855C91.0993 5.16539 92.3172 4.92179 93.5474 4.92179C94.7775 4.92179 95.9955 5.16539 97.131 5.63855C98.2665 6.11171 99.297 6.80504 100.163 7.67856C101.029 8.55207 101.714 9.58846 102.177 10.7279C102.641 11.8674 102.874 13.0874 102.864 14.3175V19.9757C102.864 20.5061 103.075 21.0148 103.45 21.3899C103.825 21.765 104.333 21.9757 104.864 21.9757H123.611V33.0649H63.4834V21.9757H82.2309C82.7613 21.9757 83.27 21.765 83.645 21.3899C84.0201 21.0148 84.2308 20.5061 84.2308 19.9757ZM127.612 35.0648V29.8599H136.178C136.481 29.8603 136.772 29.9809 136.987 30.1954C137.201 30.4099 137.321 30.7006 137.322 31.0039V116.512H127.278C125.081 116.514 122.974 117.388 121.421 118.942C119.867 120.495 118.993 122.602 118.991 124.799V134.576H77.8616C79.8476 129.746 80.8601 124.571 80.8409 119.348V91.8757C80.8409 91.4847 80.7263 91.1022 80.5113 90.7755C80.2962 90.4489 79.9901 90.1925 79.6309 90.0381L79.3822 89.9314C69.034 85.4771 59.1216 80.072 49.7723 73.7856V31.0039C49.7726 30.7006 49.8931 30.4099 50.1075 30.1954C50.322 29.9809 50.6127 29.8603 50.916 29.8599H59.4825V35.0648C59.4825 35.5953 59.6932 36.104 60.0683 36.479C60.4434 36.8541 60.9521 37.0648 61.4825 37.0648H125.612C126.142 37.0648 126.651 36.8541 127.026 36.479C127.401 36.104 127.612 35.5953 127.612 35.0648ZM134.572 120.512L122.991 132.093V124.799C122.992 123.662 123.444 122.573 124.248 121.769C125.052 120.965 126.141 120.513 127.278 120.512L134.572 120.512ZM35.1915 16.8338C35.1928 15.6972 35.6448 14.6075 36.4485 13.8038C37.2522 13.0001 38.3419 12.5481 39.4785 12.5468H80.3519C80.2721 13.1342 80.2316 13.7263 80.2305 14.3191V17.9757H61.4835C60.953 17.9757 60.4444 18.1865 60.0693 18.5615C59.6942 18.9366 59.4835 19.4453 59.4835 19.9757V25.86H50.917C49.5533 25.8616 48.2459 26.4041 47.2816 27.3685C46.3174 28.3328 45.775 29.6402 45.7734 31.0039V71.0193C44.546 70.1458 43.3287 69.2581 42.1214 68.3564C41.7752 68.0967 41.3542 67.9564 40.9214 67.9564C40.4887 67.9564 40.0676 68.0967 39.7215 68.3564C38.2293 69.4757 36.7196 70.5715 35.1925 71.6437L35.1915 16.8338ZM40.2724 160.904C34.0363 158.763 28.1523 155.709 22.8127 151.842C10.9932 143.191 4.99994 132.258 4.99994 119.347V93.1894C17.709 87.6359 29.7574 80.6793 40.9208 72.449C52.0839 80.6793 64.1321 87.636 76.8409 93.1894V119.347C76.8409 132.21 70.667 143.114 58.4899 151.757C52.8938 155.675 46.7569 158.756 40.2724 160.904ZM151.904 147.604C151.903 148.74 151.451 149.83 150.647 150.634C149.844 151.438 148.754 151.89 147.618 151.891H64.8388C69.57 147.891 73.2883 143.425 75.9446 138.576H119.774C120.027 138.574 120.28 138.556 120.531 138.521C120.882 138.605 121.25 138.592 121.594 138.484C121.938 138.375 122.246 138.174 122.485 137.903C122.989 137.633 123.451 137.29 123.855 136.885L139.632 121.109C140.17 120.574 140.596 119.938 140.886 119.237C141.176 118.537 141.325 117.785 141.323 117.027V31.0039C141.321 29.6402 140.779 28.3328 139.814 27.3685C138.85 26.4041 137.543 25.8616 136.179 25.86H127.613V19.9757C127.613 19.4453 127.402 18.9366 127.027 18.5615C126.652 18.1865 126.143 17.9757 125.613 17.9757H106.865V14.3175C106.863 13.7246 106.823 13.1326 106.743 12.5452H147.618C148.754 12.5467 149.844 12.9991 150.648 13.8031C151.451 14.6071 151.903 15.6971 151.904 16.8338L151.904 147.604Z"/>
</mask>
<path d="M147.618 8.54521H105.547C104.461 6.28515 102.758 4.3779 100.635 3.04305C98.5118 1.70819 96.0551 1 93.5474 1C91.0396 1 88.5829 1.70819 86.46 3.04305C84.337 4.3779 82.6342 6.28515 81.5475 8.54521H39.4785C37.2811 8.5476 35.1744 9.42167 33.6208 10.9756C32.0672 12.5295 31.1935 14.6364 31.1916 16.8338V74.375C22.0998 80.4114 12.4838 85.6182 2.45965 89.9327L2.21032 90.0397C1.851 90.1942 1.54484 90.4505 1.32972 90.7771C1.1146 91.1038 0.999968 91.4863 1 91.8774V119.349C1 133.405 7.7259 145.758 20.4504 155.071C26.3077 159.349 32.8052 162.673 39.7018 164.92C40.0622 165.025 40.4451 165.027 40.8064 164.925C47.4559 162.836 53.7672 159.793 59.5428 155.891H147.618C149.815 155.889 151.921 155.015 153.475 153.461C155.028 151.908 155.902 149.801 155.904 147.604V16.8338C155.903 14.6364 155.029 12.5295 153.475 10.9756C151.922 9.42167 149.815 8.5476 147.618 8.54521ZM84.2308 19.9757V14.3175C84.2204 13.0874 84.4537 11.8674 84.9172 10.7279C85.3808 9.58846 86.0654 8.55207 86.9315 7.67856C87.7977 6.80504 88.8283 6.11171 89.9638 5.63855C91.0993 5.16539 92.3172 4.92179 93.5474 4.92179C94.7775 4.92179 95.9955 5.16539 97.131 5.63855C98.2665 6.11171 99.297 6.80504 100.163 7.67856C101.029 8.55207 101.714 9.58846 102.177 10.7279C102.641 11.8674 102.874 13.0874 102.864 14.3175V19.9757C102.864 20.5061 103.075 21.0148 103.45 21.3899C103.825 21.765 104.333 21.9757 104.864 21.9757H123.611V33.0649H63.4834V21.9757H82.2309C82.7613 21.9757 83.27 21.765 83.645 21.3899C84.0201 21.0148 84.2308 20.5061 84.2308 19.9757ZM127.612 35.0648V29.8599H136.178C136.481 29.8603 136.772 29.9809 136.987 30.1954C137.201 30.4099 137.321 30.7006 137.322 31.0039V116.512H127.278C125.081 116.514 122.974 117.388 121.421 118.942C119.867 120.495 118.993 122.602 118.991 124.799V134.576H77.8616C79.8476 129.746 80.8601 124.571 80.8409 119.348V91.8757C80.8409 91.4847 80.7263 91.1022 80.5113 90.7755C80.2962 90.4489 79.9901 90.1925 79.6309 90.0381L79.3822 89.9314C69.034 85.4771 59.1216 80.072 49.7723 73.7856V31.0039C49.7726 30.7006 49.8931 30.4099 50.1075 30.1954C50.322 29.9809 50.6127 29.8603 50.916 29.8599H59.4825V35.0648C59.4825 35.5953 59.6932 36.104 60.0683 36.479C60.4434 36.8541 60.9521 37.0648 61.4825 37.0648H125.612C126.142 37.0648 126.651 36.8541 127.026 36.479C127.401 36.104 127.612 35.5953 127.612 35.0648ZM134.572 120.512L122.991 132.093V124.799C122.992 123.662 123.444 122.573 124.248 121.769C125.052 120.965 126.141 120.513 127.278 120.512L134.572 120.512ZM35.1915 16.8338C35.1928 15.6972 35.6448 14.6075 36.4485 13.8038C37.2522 13.0001 38.3419 12.5481 39.4785 12.5468H80.3519C80.2721 13.1342 80.2316 13.7263 80.2305 14.3191V17.9757H61.4835C60.953 17.9757 60.4444 18.1865 60.0693 18.5615C59.6942 18.9366 59.4835 19.4453 59.4835 19.9757V25.86H50.917C49.5533 25.8616 48.2459 26.4041 47.2816 27.3685C46.3174 28.3328 45.775 29.6402 45.7734 31.0039V71.0193C44.546 70.1458 43.3287 69.2581 42.1214 68.3564C41.7752 68.0967 41.3542 67.9564 40.9214 67.9564C40.4887 67.9564 40.0676 68.0967 39.7215 68.3564C38.2293 69.4757 36.7196 70.5715 35.1925 71.6437L35.1915 16.8338ZM40.2724 160.904C34.0363 158.763 28.1523 155.709 22.8127 151.842C10.9932 143.191 4.99994 132.258 4.99994 119.347V93.1894C17.709 87.6359 29.7574 80.6793 40.9208 72.449C52.0839 80.6793 64.1321 87.636 76.8409 93.1894V119.347C76.8409 132.21 70.667 143.114 58.4899 151.757C52.8938 155.675 46.7569 158.756 40.2724 160.904ZM151.904 147.604C151.903 148.74 151.451 149.83 150.647 150.634C149.844 151.438 148.754 151.89 147.618 151.891H64.8388C69.57 147.891 73.2883 143.425 75.9446 138.576H119.774C120.027 138.574 120.28 138.556 120.531 138.521C120.882 138.605 121.25 138.592 121.594 138.484C121.938 138.375 122.246 138.174 122.485 137.903C122.989 137.633 123.451 137.29 123.855 136.885L139.632 121.109C140.17 120.574 140.596 119.938 140.886 119.237C141.176 118.537 141.325 117.785 141.323 117.027V31.0039C141.321 29.6402 140.779 28.3328 139.814 27.3685C138.85 26.4041 137.543 25.8616 136.179 25.86H127.613V19.9757C127.613 19.4453 127.402 18.9366 127.027 18.5615C126.652 18.1865 126.143 17.9757 125.613 17.9757H106.865V14.3175C106.863 13.7246 106.823 13.1326 106.743 12.5452H147.618C148.754 12.5467 149.844 12.9991 150.648 13.8031C151.451 14.6071 151.903 15.6971 151.904 16.8338L151.904 147.604Z" fill="#FAF4F8"/>
<path d="M147.618 8.54521H105.547C104.461 6.28515 102.758 4.3779 100.635 3.04305C98.5118 1.70819 96.0551 1 93.5474 1C91.0396 1 88.5829 1.70819 86.46 3.04305C84.337 4.3779 82.6342 6.28515 81.5475 8.54521H39.4785C37.2811 8.5476 35.1744 9.42167 33.6208 10.9756C32.0672 12.5295 31.1935 14.6364 31.1916 16.8338V74.375C22.0998 80.4114 12.4838 85.6182 2.45965 89.9327L2.21032 90.0397C1.851 90.1942 1.54484 90.4505 1.32972 90.7771C1.1146 91.1038 0.999968 91.4863 1 91.8774V119.349C1 133.405 7.7259 145.758 20.4504 155.071C26.3077 159.349 32.8052 162.673 39.7018 164.92C40.0622 165.025 40.4451 165.027 40.8064 164.925C47.4559 162.836 53.7672 159.793 59.5428 155.891H147.618C149.815 155.889 151.921 155.015 153.475 153.461C155.028 151.908 155.902 149.801 155.904 147.604V16.8338C155.903 14.6364 155.029 12.5295 153.475 10.9756C151.922 9.42167 149.815 8.5476 147.618 8.54521ZM84.2308 19.9757V14.3175C84.2204 13.0874 84.4537 11.8674 84.9172 10.7279C85.3808 9.58846 86.0654 8.55207 86.9315 7.67856C87.7977 6.80504 88.8283 6.11171 89.9638 5.63855C91.0993 5.16539 92.3172 4.92179 93.5474 4.92179C94.7775 4.92179 95.9955 5.16539 97.131 5.63855C98.2665 6.11171 99.297 6.80504 100.163 7.67856C101.029 8.55207 101.714 9.58846 102.177 10.7279C102.641 11.8674 102.874 13.0874 102.864 14.3175V19.9757C102.864 20.5061 103.075 21.0148 103.45 21.3899C103.825 21.765 104.333 21.9757 104.864 21.9757H123.611V33.0649H63.4834V21.9757H82.2309C82.7613 21.9757 83.27 21.765 83.645 21.3899C84.0201 21.0148 84.2308 20.5061 84.2308 19.9757ZM127.612 35.0648V29.8599H136.178C136.481 29.8603 136.772 29.9809 136.987 30.1954C137.201 30.4099 137.321 30.7006 137.322 31.0039V116.512H127.278C125.081 116.514 122.974 117.388 121.421 118.942C119.867 120.495 118.993 122.602 118.991 124.799V134.576H77.8616C79.8476 129.746 80.8601 124.571 80.8409 119.348V91.8757C80.8409 91.4847 80.7263 91.1022 80.5113 90.7755C80.2962 90.4489 79.9901 90.1925 79.6309 90.0381L79.3822 89.9314C69.034 85.4771 59.1216 80.072 49.7723 73.7856V31.0039C49.7726 30.7006 49.8931 30.4099 50.1075 30.1954C50.322 29.9809 50.6127 29.8603 50.916 29.8599H59.4825V35.0648C59.4825 35.5953 59.6932 36.104 60.0683 36.479C60.4434 36.8541 60.9521 37.0648 61.4825 37.0648H125.612C126.142 37.0648 126.651 36.8541 127.026 36.479C127.401 36.104 127.612 35.5953 127.612 35.0648ZM134.572 120.512L122.991 132.093V124.799C122.992 123.662 123.444 122.573 124.248 121.769C125.052 120.965 126.141 120.513 127.278 120.512L134.572 120.512ZM35.1915 16.8338C35.1928 15.6972 35.6448 14.6075 36.4485 13.8038C37.2522 13.0001 38.3419 12.5481 39.4785 12.5468H80.3519C80.2721 13.1342 80.2316 13.7263 80.2305 14.3191V17.9757H61.4835C60.953 17.9757 60.4444 18.1865 60.0693 18.5615C59.6942 18.9366 59.4835 19.4453 59.4835 19.9757V25.86H50.917C49.5533 25.8616 48.2459 26.4041 47.2816 27.3685C46.3174 28.3328 45.775 29.6402 45.7734 31.0039V71.0193C44.546 70.1458 43.3287 69.2581 42.1214 68.3564C41.7752 68.0967 41.3542 67.9564 40.9214 67.9564C40.4887 67.9564 40.0676 68.0967 39.7215 68.3564C38.2293 69.4757 36.7196 70.5715 35.1925 71.6437L35.1915 16.8338ZM40.2724 160.904C34.0363 158.763 28.1523 155.709 22.8127 151.842C10.9932 143.191 4.99994 132.258 4.99994 119.347V93.1894C17.709 87.6359 29.7574 80.6793 40.9208 72.449C52.0839 80.6793 64.1321 87.636 76.8409 93.1894V119.347C76.8409 132.21 70.667 143.114 58.4899 151.757C52.8938 155.675 46.7569 158.756 40.2724 160.904ZM151.904 147.604C151.903 148.74 151.451 149.83 150.647 150.634C149.844 151.438 148.754 151.89 147.618 151.891H64.8388C69.57 147.891 73.2883 143.425 75.9446 138.576H119.774C120.027 138.574 120.28 138.556 120.531 138.521C120.882 138.605 121.25 138.592 121.594 138.484C121.938 138.375 122.246 138.174 122.485 137.903C122.989 137.633 123.451 137.29 123.855 136.885L139.632 121.109C140.17 120.574 140.596 119.938 140.886 119.237C141.176 118.537 141.325 117.785 141.323 117.027V31.0039C141.321 29.6402 140.779 28.3328 139.814 27.3685C138.85 26.4041 137.543 25.8616 136.179 25.86H127.613V19.9757C127.613 19.4453 127.402 18.9366 127.027 18.5615C126.652 18.1865 126.143 17.9757 125.613 17.9757H106.865V14.3175C106.863 13.7246 106.823 13.1326 106.743 12.5452H147.618C148.754 12.5467 149.844 12.9991 150.648 13.8031C151.451 14.6071 151.903 15.6971 151.904 16.8338L151.904 147.604Z" stroke="#FAF4F8" stroke-width="1.42609" mask="url(#path-1-outside-1)"/>
<path d="M84.572 57.2821H115.886C116.511 57.2821 117.11 57.0338 117.552 56.5919C117.994 56.1499 118.242 55.5505 118.242 54.9256C118.242 54.3006 117.994 53.7012 117.552 53.2593C117.11 52.8174 116.511 52.5691 115.886 52.5691H84.572C83.947 52.5691 83.3477 52.8174 82.9057 53.2593C82.4638 53.7012 82.2155 54.3006 82.2155 54.9256C82.2155 55.5505 82.4638 56.1499 82.9057 56.5919C83.3477 57.0338 83.947 57.2821 84.572 57.2821Z" fill="#FAF4F8" stroke="#FAF4F8" stroke-width="0.713043"/>
<path d="M61.4857 57.2821H73.7346C74.3595 57.2821 74.9589 57.0338 75.4008 56.5919C75.8428 56.1499 76.091 55.5506 76.091 54.9256C76.091 54.3006 75.8428 53.7012 75.4008 53.2593C74.9589 52.8174 74.3595 52.5691 73.7346 52.5691H61.4857C60.8607 52.5691 60.2614 52.8174 59.8194 53.2593C59.3775 53.7012 59.1292 54.3006 59.1292 54.9256C59.1292 55.5506 59.3775 56.1499 59.8194 56.5919C60.2614 57.0338 60.8607 57.2821 61.4857 57.2821Z" fill="#FAF4F8" stroke="#FAF4F8" stroke-width="0.713043"/>
<path d="M114.173 71.8759C114.173 71.2509 113.925 70.6516 113.483 70.2096C113.041 69.7677 112.442 69.5194 111.817 69.5194H102.791C102.166 69.5194 101.567 69.7677 101.125 70.2096C100.683 70.6516 100.434 71.2509 100.434 71.8759C100.434 72.5009 100.683 73.1003 101.125 73.5422C101.567 73.9841 102.166 74.2324 102.791 74.2324H111.817C112.442 74.2324 113.041 73.9841 113.483 73.5422C113.925 73.1003 114.173 72.5009 114.173 71.8759Z" fill="#FAF4F8" stroke="#FAF4F8" stroke-width="0.713043"/>
<path d="M97.1824 71.8759C97.1824 71.2509 96.9341 70.6516 96.4922 70.2096C96.0503 69.7677 95.4509 69.5194 94.8259 69.5194H61.4857C60.8607 69.5194 60.2614 69.7677 59.8194 70.2096C59.3775 70.6516 59.1292 71.2509 59.1292 71.8759C59.1292 72.5009 59.3775 73.1003 59.8194 73.5422C60.2614 73.9841 60.8607 74.2324 61.4857 74.2324H94.8259C95.4509 74.2324 96.0503 73.9841 96.4922 73.5422C96.9341 73.1003 97.1824 72.5009 97.1824 71.8759Z" fill="#FAF4F8" stroke="#FAF4F8" stroke-width="0.713043"/>
<path d="M86.3688 87.5251C85.7439 87.5251 85.1445 87.7734 84.7025 88.2153C84.2606 88.6573 84.0123 89.2566 84.0123 89.8816C84.0123 90.5066 84.2606 91.106 84.7025 91.5479C85.1445 91.9898 85.7439 92.2381 86.3688 92.2381H104.369C104.994 92.2381 105.593 91.9898 106.035 91.5479C106.477 91.106 106.725 90.5066 106.725 89.8816C106.725 89.2566 106.477 88.6573 106.035 88.2153C105.593 87.7734 104.994 87.5251 104.369 87.5251H86.3688Z" fill="#FAF4F8" stroke="#FAF4F8" stroke-width="0.713043"/>
<path d="M125.613 104.168H85.9072C85.2822 104.168 84.6829 104.416 84.2409 104.858C83.799 105.3 83.5507 105.899 83.5507 106.524C83.5507 107.149 83.799 107.749 84.2409 108.191C84.6829 108.633 85.2822 108.881 85.9072 108.881H125.613C126.238 108.881 126.838 108.633 127.28 108.191C127.722 107.749 127.97 107.149 127.97 106.524C127.97 105.899 127.722 105.3 127.28 104.858C126.838 104.416 126.238 104.168 125.613 104.168Z" fill="#FAF4F8" stroke="#FAF4F8" stroke-width="0.713043"/>
<path d="M57.4392 104.312C56.8703 104.281 56.311 104.456 55.8636 104.804H55.8512L55.749 104.898L35.991 122.996L26.2363 112.418C26.0282 112.186 25.7763 111.998 25.495 111.865L25.342 112.187L25.495 111.865C25.213 111.731 24.9072 111.654 24.5954 111.639C24.2835 111.624 23.9718 111.672 23.6783 111.778C23.3849 111.885 23.1156 112.049 22.8861 112.261C22.6565 112.472 22.4714 112.727 22.3413 113.011C22.2112 113.295 22.1388 113.602 22.1284 113.914C22.1179 114.226 22.1696 114.537 22.2803 114.829C22.3908 115.12 22.5578 115.386 22.7718 115.613L34.1183 127.917C34.541 128.375 35.1283 128.647 35.7514 128.674C36.3745 128.7 36.9826 128.478 37.4426 128.057L37.4426 128.057L58.9323 108.374L58.9323 108.374L58.9378 108.368C59.3832 107.943 59.6442 107.359 59.6647 106.744C59.6853 106.128 59.4639 105.528 59.0479 105.074C58.6319 104.619 58.0544 104.346 57.4392 104.312Z" fill="#FAF4F8" stroke="#FAF4F8" stroke-width="0.713043"/>
</svg>
