<svg width="27" height="32" viewBox="0 0 27 32" fill="none" xmlns="http://www.w3.org/2000/svg">
<path d="M13.7916 2.50061C13.4455 2.50061 13.1672 2.77936 13.1672 3.12498C13.1672 3.44667 13.4092 3.71436 13.7291 3.74611C14.0994 3.78286 14.416 3.49442 14.416 3.12498C14.416 2.77886 14.1372 2.50061 13.7916 2.50061Z" fill="url(#paint0_linear)"/>
<path d="M26.2916 3.75C24.5685 3.75 23.1666 2.34813 23.1666 0.625C23.1666 0.279875 22.8868 0 22.5416 0H5.04163C4.6965 0 4.41663 0.279875 4.41663 0.625C4.41663 2.34813 3.01475 3.75 1.29163 3.75C0.946501 3.75 0.666626 4.02988 0.666626 4.375V14.5744C0.666626 22.5229 5.84756 29.6453 13.6121 31.9737C13.6707 31.9912 13.7311 32 13.7916 32C13.8521 32 13.9127 31.9912 13.9712 31.9736C21.5676 29.6949 26.9166 22.6968 26.9166 14.5744V4.375C26.9166 4.02988 26.6368 3.75 26.2916 3.75ZM25.6666 14.5744C25.6666 22.0399 20.9028 28.5051 13.7916 30.7214C6.73713 28.5228 1.91663 21.999 1.91663 14.5744V4.9555C3.82981 4.68063 5.34725 3.16319 5.62213 1.25H21.9611C22.236 3.16319 23.7534 4.68063 25.6666 4.9555V14.5744Z" fill="url(#paint1_linear)"/>
<path d="M24.0424 5.78063C22.739 5.20981 21.7068 4.17763 21.136 2.87425C21.0364 2.64687 20.8118 2.5 20.5635 2.5H16.2904C15.9453 2.5 15.6654 2.77988 15.6654 3.125C15.6654 3.47013 15.9453 3.75 16.2904 3.75H20.1683C20.8286 5.04256 21.8741 6.08794 23.1666 6.74831V14.5744C23.1666 20.6908 19.4948 25.9683 13.7916 28.0809C8.08844 25.9683 4.41663 20.6908 4.41663 14.5744V6.74831C5.70919 6.08794 6.75456 5.04256 7.41494 3.75H11.2929C11.638 3.75 11.9179 3.47013 11.9179 3.125C11.9179 2.77988 11.638 2.5 11.2929 2.5H7.01975C6.7715 2.5 6.54688 2.64694 6.44725 2.87425C5.87644 4.17763 4.84425 5.20981 3.54088 5.78063C3.31356 5.88025 3.16663 6.10494 3.16663 6.35313V14.5744C3.16663 21.2752 7.31106 27.1152 13.5831 29.3348C13.6506 29.3586 13.7211 29.3706 13.7916 29.3706C13.8622 29.3706 13.9327 29.3586 14.0001 29.3348C20.2669 27.1171 24.4166 21.2806 24.4166 14.5744V6.35313C24.4166 6.10488 24.2697 5.88025 24.0424 5.78063Z" fill="url(#paint2_linear)"/>
<path d="M13.7916 9.125C10.69 9.125 8.16663 11.6484 8.16663 14.75C8.16663 17.8516 10.69 20.375 13.7916 20.375C16.8933 20.375 19.4166 17.8516 19.4166 14.75C19.4166 11.6484 16.8933 9.125 13.7916 9.125ZM13.7916 19.125C11.3793 19.125 9.41663 17.1624 9.41663 14.75C9.41663 12.3376 11.3793 10.375 13.7916 10.375C16.204 10.375 18.1666 12.3376 18.1666 14.75C18.1666 17.1624 16.204 19.125 13.7916 19.125Z" fill="url(#paint3_linear)"/>
<path d="M16.7335 13.058C16.4894 12.814 16.0937 12.814 15.8496 13.058L13.1666 15.7411L12.3585 14.9331C12.1144 14.6891 11.7187 14.6891 11.4746 14.9331C11.2305 15.1771 11.2305 15.5729 11.4746 15.817L12.7246 17.067C12.8467 17.1889 13.0066 17.25 13.1666 17.25C13.3266 17.25 13.4864 17.1889 13.6085 17.0669L16.7335 13.9419C16.9776 13.6979 16.9776 13.3021 16.7335 13.058Z" fill="url(#paint4_linear)"/>
<defs>
<linearGradient id="paint0_linear" x1="13.7916" y1="2.50061" x2="13.7916" y2="3.74927" gradientUnits="userSpaceOnUse">
<stop stop-color="#F58634"/>
<stop offset="1" stop-color="#A8518A" stop-opacity="0.63"/>
</linearGradient>
<linearGradient id="paint1_linear" x1="13.7916" y1="0" x2="13.7916" y2="32" gradientUnits="userSpaceOnUse">
<stop stop-color="#F58634"/>
<stop offset="1" stop-color="#A8518A" stop-opacity="0.63"/>
</linearGradient>
<linearGradient id="paint2_linear" x1="13.7916" y1="2.5" x2="13.7916" y2="29.3706" gradientUnits="userSpaceOnUse">
<stop stop-color="#F58634"/>
<stop offset="1" stop-color="#A8518A" stop-opacity="0.63"/>
</linearGradient>
<linearGradient id="paint3_linear" x1="13.7916" y1="9.125" x2="13.7916" y2="20.375" gradientUnits="userSpaceOnUse">
<stop stop-color="#F58634"/>
<stop offset="1" stop-color="#A8518A" stop-opacity="0.63"/>
</linearGradient>
<linearGradient id="paint4_linear" x1="14.104" y1="12.875" x2="14.104" y2="17.25" gradientUnits="userSpaceOnUse">
<stop stop-color="#F58634"/>
<stop offset="1" stop-color="#A8518A" stop-opacity="0.63"/>
</linearGradient>
</defs>
</svg>
