<svg width="101" height="130" viewBox="0 0 101 130" fill="none" xmlns="http://www.w3.org/2000/svg">
<path d="M14.6 26.0334H28.2C29.5071 26.0334 30.5667 24.9738 30.5667 23.6667C30.5667 22.3597 29.5071 21.3001 28.2 21.3001H14.6C13.293 21.3001 12.2334 22.3597 12.2334 23.6667C12.2334 24.9738 13.293 26.0334 14.6 26.0334Z" fill="#FAF4F8" stroke="#FAF4F8" stroke-width="0.2"/>
<path d="M39.5335 26.0334H59.9335C61.2405 26.0334 62.3001 24.9738 62.3001 23.6667C62.3001 22.3597 61.2405 21.3001 59.9335 21.3001H39.5335C38.2264 21.3001 37.1668 22.3597 37.1668 23.6667C37.1668 24.9738 38.2264 26.0334 39.5335 26.0334Z" fill="#FAF4F8" stroke="#FAF4F8" stroke-width="0.2"/>
<path d="M14.6 50.9666H87.1334C88.4405 50.9666 89.5001 49.907 89.5001 48.5999C89.5001 47.2928 88.4405 46.2333 87.1334 46.2333H14.6C13.293 46.2333 12.2334 47.2928 12.2334 48.5999C12.2334 49.907 13.293 50.9666 14.6 50.9666Z" fill="#FAF4F8" stroke="#FAF4F8" stroke-width="0.2"/>
<path d="M14.6 60.0334H46.3334C47.6405 60.0334 48.7 58.9738 48.7 57.6667C48.7 56.3597 47.6405 55.3001 46.3334 55.3001H14.6C13.293 55.3001 12.2334 56.3597 12.2334 57.6667C12.2334 58.9738 13.293 60.0334 14.6 60.0334Z" fill="#FAF4F8" stroke="#FAF4F8" stroke-width="0.2"/>
<path d="M14.6 78.1667H46.3334C47.6404 78.1667 48.7 77.1071 48.7 75.8C48.7 74.493 47.6404 73.4334 46.3334 73.4334H14.6C13.293 73.4334 12.2334 74.493 12.2334 75.8C12.2334 77.1071 13.293 78.1667 14.6 78.1667Z" fill="#FAF4F8" stroke="#FAF4F8" stroke-width="0.2"/>
<path d="M14.6 96.3001H46.3334C47.6404 96.3001 48.7 95.2405 48.7 93.9334C48.7 92.6264 47.6404 91.5668 46.3334 91.5668H14.6C13.293 91.5668 12.2334 92.6264 12.2334 93.9334C12.2334 95.2405 13.293 96.3001 14.6 96.3001Z" fill="#FAF4F8" stroke="#FAF4F8" stroke-width="0.2"/>
<path d="M14.6 114.433H46.3334C47.6404 114.433 48.7 113.374 48.7 112.067C48.7 110.76 47.6404 109.7 46.3334 109.7H14.6C13.293 109.7 12.2334 110.76 12.2334 112.067C12.2334 113.374 13.293 114.433 14.6 114.433Z" fill="#FAF4F8" stroke="#FAF4F8" stroke-width="0.2"/>
<mask id="path-8-outside-1" maskUnits="userSpaceOnUse" x="0" y="0" width="138" height="138" fill="black">
<rect fill="white" width="138" height="138"/>
<path d="M135.64 67.028L109.8 55.8692V7.8C109.8 4.04446 106.756 1 103 1H16.8667C13.1111 1 10.0667 4.04446 10.0667 7.8V10.0667H7.8C4.04446 10.0667 1 13.1111 1 16.8667V130.2C1 133.956 4.04446 137 7.8 137H93.9333C95.7671 136.996 97.5211 136.249 98.7953 134.931L100.654 136.252C102.059 137.249 103.941 137.249 105.346 136.252L127.276 120.641C133.355 116.327 136.977 109.342 137 101.887V69.1088C137.001 68.2063 136.467 67.389 135.64 67.028ZM14.6 7.8C14.6 6.54815 15.6148 5.53333 16.8667 5.53333H103C104.252 5.53333 105.267 6.54815 105.267 7.8V53.9108L103.907 53.3192C103.334 53.0721 102.684 53.0721 102.111 53.3192L100.751 53.9108V39.5333C100.751 39.4835 100.727 39.4359 100.722 39.386C100.711 39.1961 100.674 39.0086 100.613 38.8284C100.597 38.7763 100.6 38.7219 100.579 38.672C100.559 38.6221 100.543 38.6221 100.532 38.5949C100.421 38.3483 100.268 38.1234 100.078 37.9308L72.8783 10.7308C72.6857 10.5413 72.4608 10.3878 72.2141 10.2775C72.1847 10.2639 72.1643 10.2412 72.1371 10.2299C72.1099 10.2185 72.0328 10.2117 71.9829 10.1959C71.8003 10.135 71.6106 10.0977 71.4185 10.0848C71.3619 10.0916 71.3165 10.0667 71.2667 10.0667H14.6V7.8ZM73.5333 17.8051L92.9949 37.2667H75.8C74.5482 37.2667 73.5333 36.2519 73.5333 35V17.8051ZM93.9333 132.467H7.8C6.54815 132.467 5.53333 131.452 5.53333 130.2V16.8667C5.53333 15.6148 6.54815 14.6 7.8 14.6H69V35C69 38.7555 72.0445 41.8 75.8 41.8H96.2V55.8692L88.9036 59.0267C89.2168 58.6418 89.3916 58.1628 89.4 57.6667C89.4 56.4148 88.3852 55.4 87.1333 55.4H55.4C54.1482 55.4 53.1333 56.4148 53.1333 57.6667C53.1333 58.9185 54.1482 59.9333 55.4 59.9333H86.7911L76.2964 64.4667H14.6C13.3482 64.4667 12.3333 65.4815 12.3333 66.7333C12.3333 67.9852 13.3482 69 14.6 69H69.0159C69.0159 69.0363 69 69.0703 69 69.1088V73.5333H55.4C54.1482 73.5333 53.1333 74.5482 53.1333 75.8C53.1333 77.0518 54.1482 78.0667 55.4 78.0667H69V82.6H14.6C13.3482 82.6 12.3333 83.6148 12.3333 84.8667C12.3333 86.1185 13.3482 87.1333 14.6 87.1333H69V91.6667H55.4C54.1482 91.6667 53.1333 92.6815 53.1333 93.9333C53.1333 95.1852 54.1482 96.2 55.4 96.2H69V100.733H14.6C13.3482 100.733 12.3333 101.748 12.3333 103C12.3333 104.252 13.3482 105.267 14.6 105.267H69.2833C69.5087 106.813 69.8931 108.332 70.4303 109.8H55.4C54.1482 109.8 53.1333 110.815 53.1333 112.067C53.1333 113.319 54.1482 114.333 55.4 114.333H72.7196C73.7908 116.001 75.0713 117.525 76.5299 118.867H14.6C13.3482 118.867 12.3333 119.882 12.3333 121.133C12.3333 122.385 13.3482 123.4 14.6 123.4H82.6L94.9488 132.19C94.6375 132.363 94.2891 132.458 93.9333 132.467ZM132.467 101.887C132.445 107.875 129.533 113.483 124.649 116.947L103 132.358L81.3511 116.945C76.4675 113.481 73.5561 107.874 73.5333 101.887V70.6071L77.636 68.8345L77.6791 68.8164L103 57.8684L132.467 70.598V101.887Z"/>
</mask>
<path d="M135.64 67.028L109.8 55.8692V7.8C109.8 4.04446 106.756 1 103 1H16.8667C13.1111 1 10.0667 4.04446 10.0667 7.8V10.0667H7.8C4.04446 10.0667 1 13.1111 1 16.8667V130.2C1 133.956 4.04446 137 7.8 137H93.9333C95.7671 136.996 97.5211 136.249 98.7953 134.931L100.654 136.252C102.059 137.249 103.941 137.249 105.346 136.252L127.276 120.641C133.355 116.327 136.977 109.342 137 101.887V69.1088C137.001 68.2063 136.467 67.389 135.64 67.028ZM14.6 7.8C14.6 6.54815 15.6148 5.53333 16.8667 5.53333H103C104.252 5.53333 105.267 6.54815 105.267 7.8V53.9108L103.907 53.3192C103.334 53.0721 102.684 53.0721 102.111 53.3192L100.751 53.9108V39.5333C100.751 39.4835 100.727 39.4359 100.722 39.386C100.711 39.1961 100.674 39.0086 100.613 38.8284C100.597 38.7763 100.6 38.7219 100.579 38.672C100.559 38.6221 100.543 38.6221 100.532 38.5949C100.421 38.3483 100.268 38.1234 100.078 37.9308L72.8783 10.7308C72.6857 10.5413 72.4608 10.3878 72.2141 10.2775C72.1847 10.2639 72.1643 10.2412 72.1371 10.2299C72.1099 10.2185 72.0328 10.2117 71.9829 10.1959C71.8003 10.135 71.6106 10.0977 71.4185 10.0848C71.3619 10.0916 71.3165 10.0667 71.2667 10.0667H14.6V7.8ZM73.5333 17.8051L92.9949 37.2667H75.8C74.5482 37.2667 73.5333 36.2519 73.5333 35V17.8051ZM93.9333 132.467H7.8C6.54815 132.467 5.53333 131.452 5.53333 130.2V16.8667C5.53333 15.6148 6.54815 14.6 7.8 14.6H69V35C69 38.7555 72.0445 41.8 75.8 41.8H96.2V55.8692L88.9036 59.0267C89.2168 58.6418 89.3916 58.1628 89.4 57.6667C89.4 56.4148 88.3852 55.4 87.1333 55.4H55.4C54.1482 55.4 53.1333 56.4148 53.1333 57.6667C53.1333 58.9185 54.1482 59.9333 55.4 59.9333H86.7911L76.2964 64.4667H14.6C13.3482 64.4667 12.3333 65.4815 12.3333 66.7333C12.3333 67.9852 13.3482 69 14.6 69H69.0159C69.0159 69.0363 69 69.0703 69 69.1088V73.5333H55.4C54.1482 73.5333 53.1333 74.5482 53.1333 75.8C53.1333 77.0518 54.1482 78.0667 55.4 78.0667H69V82.6H14.6C13.3482 82.6 12.3333 83.6148 12.3333 84.8667C12.3333 86.1185 13.3482 87.1333 14.6 87.1333H69V91.6667H55.4C54.1482 91.6667 53.1333 92.6815 53.1333 93.9333C53.1333 95.1852 54.1482 96.2 55.4 96.2H69V100.733H14.6C13.3482 100.733 12.3333 101.748 12.3333 103C12.3333 104.252 13.3482 105.267 14.6 105.267H69.2833C69.5087 106.813 69.8931 108.332 70.4303 109.8H55.4C54.1482 109.8 53.1333 110.815 53.1333 112.067C53.1333 113.319 54.1482 114.333 55.4 114.333H72.7196C73.7908 116.001 75.0713 117.525 76.5299 118.867H14.6C13.3482 118.867 12.3333 119.882 12.3333 121.133C12.3333 122.385 13.3482 123.4 14.6 123.4H82.6L94.9488 132.19C94.6375 132.363 94.2891 132.458 93.9333 132.467ZM132.467 101.887C132.445 107.875 129.533 113.483 124.649 116.947L103 132.358L81.3511 116.945C76.4675 113.481 73.5561 107.874 73.5333 101.887V70.6071L77.636 68.8345L77.6791 68.8164L103 57.8684L132.467 70.598V101.887Z" fill="#FAF4F8"/>
<path d="M135.64 67.028L109.8 55.8692V7.8C109.8 4.04446 106.756 1 103 1H16.8667C13.1111 1 10.0667 4.04446 10.0667 7.8V10.0667H7.8C4.04446 10.0667 1 13.1111 1 16.8667V130.2C1 133.956 4.04446 137 7.8 137H93.9333C95.7671 136.996 97.5211 136.249 98.7953 134.931L100.654 136.252C102.059 137.249 103.941 137.249 105.346 136.252L127.276 120.641C133.355 116.327 136.977 109.342 137 101.887V69.1088C137.001 68.2063 136.467 67.389 135.64 67.028ZM14.6 7.8C14.6 6.54815 15.6148 5.53333 16.8667 5.53333H103C104.252 5.53333 105.267 6.54815 105.267 7.8V53.9108L103.907 53.3192C103.334 53.0721 102.684 53.0721 102.111 53.3192L100.751 53.9108V39.5333C100.751 39.4835 100.727 39.4359 100.722 39.386C100.711 39.1961 100.674 39.0086 100.613 38.8284C100.597 38.7763 100.6 38.7219 100.579 38.672C100.559 38.6221 100.543 38.6221 100.532 38.5949C100.421 38.3483 100.268 38.1234 100.078 37.9308L72.8783 10.7308C72.6857 10.5413 72.4608 10.3878 72.2141 10.2775C72.1847 10.2639 72.1643 10.2412 72.1371 10.2299C72.1099 10.2185 72.0328 10.2117 71.9829 10.1959C71.8003 10.135 71.6106 10.0977 71.4185 10.0848C71.3619 10.0916 71.3165 10.0667 71.2667 10.0667H14.6V7.8ZM73.5333 17.8051L92.9949 37.2667H75.8C74.5482 37.2667 73.5333 36.2519 73.5333 35V17.8051ZM93.9333 132.467H7.8C6.54815 132.467 5.53333 131.452 5.53333 130.2V16.8667C5.53333 15.6148 6.54815 14.6 7.8 14.6H69V35C69 38.7555 72.0445 41.8 75.8 41.8H96.2V55.8692L88.9036 59.0267C89.2168 58.6418 89.3916 58.1628 89.4 57.6667C89.4 56.4148 88.3852 55.4 87.1333 55.4H55.4C54.1482 55.4 53.1333 56.4148 53.1333 57.6667C53.1333 58.9185 54.1482 59.9333 55.4 59.9333H86.7911L76.2964 64.4667H14.6C13.3482 64.4667 12.3333 65.4815 12.3333 66.7333C12.3333 67.9852 13.3482 69 14.6 69H69.0159C69.0159 69.0363 69 69.0703 69 69.1088V73.5333H55.4C54.1482 73.5333 53.1333 74.5482 53.1333 75.8C53.1333 77.0518 54.1482 78.0667 55.4 78.0667H69V82.6H14.6C13.3482 82.6 12.3333 83.6148 12.3333 84.8667C12.3333 86.1185 13.3482 87.1333 14.6 87.1333H69V91.6667H55.4C54.1482 91.6667 53.1333 92.6815 53.1333 93.9333C53.1333 95.1852 54.1482 96.2 55.4 96.2H69V100.733H14.6C13.3482 100.733 12.3333 101.748 12.3333 103C12.3333 104.252 13.3482 105.267 14.6 105.267H69.2833C69.5087 106.813 69.8931 108.332 70.4303 109.8H55.4C54.1482 109.8 53.1333 110.815 53.1333 112.067C53.1333 113.319 54.1482 114.333 55.4 114.333H72.7196C73.7908 116.001 75.0713 117.525 76.5299 118.867H14.6C13.3482 118.867 12.3333 119.882 12.3333 121.133C12.3333 122.385 13.3482 123.4 14.6 123.4H82.6L94.9488 132.19C94.6375 132.363 94.2891 132.458 93.9333 132.467ZM132.467 101.887C132.445 107.875 129.533 113.483 124.649 116.947L103 132.358L81.3511 116.945C76.4675 113.481 73.5561 107.874 73.5333 101.887V70.6071L77.636 68.8345L77.6791 68.8164L103 57.8684L132.467 70.598V101.887Z" stroke="#FAF4F8" stroke-width="0.4" mask="url(#path-8-outside-1)"/>
<path d="M128.033 75.0682C128.035 74.1259 127.477 73.2725 126.613 72.8956L126.613 72.8954L103.947 63.1036C103.947 63.1036 103.946 63.1035 103.946 63.1035C103.343 62.8402 102.657 62.8402 102.054 63.1035C102.053 63.1035 102.053 63.1036 102.053 63.1036L79.3869 72.8954L79.3866 72.8956C78.5229 73.2725 77.9652 74.1259 77.9666 75.0682M128.033 75.0682L127.933 75.068H128.033V75.0682ZM128.033 75.0682V101.887V101.888C128.012 106.44 125.795 110.702 122.08 113.334M122.08 113.334L122.022 113.252L122.08 113.334M122.08 113.334C122.08 113.334 122.08 113.334 122.08 113.334M122.08 113.334L122.08 113.334M122.08 113.334L104.373 125.939C103.551 126.524 102.449 126.524 101.627 125.939L83.9203 113.334C80.2046 110.703 77.9873 106.44 77.9666 101.888L77.9666 101.887L77.9666 75.0682M77.9666 75.0682L78.0666 75.068H77.9666L77.9666 75.0682ZM119.333 109.492L119.332 109.492L103 121.106L86.6677 109.478L86.6673 109.478C84.1971 107.736 82.7196 104.909 82.6999 101.887V76.623L103 67.8556L123.3 76.6343V101.887C123.284 104.914 121.806 107.746 119.333 109.492Z" fill="#FAF4F8" stroke="#FAF4F8" stroke-width="0.2"/>
<path d="M100.315 106.746L100.315 106.746L118.448 84.0792C119.265 83.0584 119.1 81.5687 118.079 80.7517C117.058 79.9348 115.568 80.1001 114.751 81.1209L114.751 81.121L98.0523 101.998L90.8198 96.5735L90.7598 96.6535L90.8198 96.5735C90.1434 96.0661 89.2477 95.9582 88.4701 96.2904C87.6926 96.6225 87.1513 97.3442 87.0501 98.1837C86.949 99.0232 87.3034 99.8528 87.9798 100.36L97.0464 107.16C97.0465 107.16 97.0465 107.16 97.0465 107.16C98.069 107.927 99.516 107.744 100.315 106.746Z" fill="#FAF4F8" stroke="#FAF4F8" stroke-width="0.2"/>
</svg>
