<svg width="92" height="132" viewBox="0 0 92 132" fill="none" xmlns="http://www.w3.org/2000/svg">
<path d="M62.4997 12.5267C60.8515 12.5267 59.5265 13.8541 59.5265 15.4999C59.5265 17.0318 60.6789 18.3065 62.2021 18.4577C63.9655 18.6327 65.473 17.2591 65.473 15.4999C65.473 13.8517 64.1456 12.5267 62.4997 12.5267Z" fill="#FAF4F8"/>
<path d="M122.024 18.4762C113.818 18.4762 107.143 11.8006 107.143 3.59524C107.143 1.95179 105.81 0.619049 104.167 0.619049H20.8333C19.1899 0.619049 17.8571 1.95179 17.8571 3.59524C17.8571 11.8006 11.1815 18.4762 2.97619 18.4762C1.33274 18.4762 0 19.8089 0 21.4524V70.0208C0 107.871 24.6711 141.787 61.6452 152.875C61.9241 152.958 62.2119 153 62.5 153C62.7881 153 63.0765 152.958 63.3551 152.874C99.5283 142.024 125 108.699 125 70.0208V21.4524C125 19.8089 123.667 18.4762 122.024 18.4762ZM119.048 70.0208C119.048 105.571 96.3628 136.358 62.5 146.912C28.9071 136.442 5.95238 105.376 5.95238 70.0208V24.2167C15.0628 22.9077 22.2887 15.6818 23.5976 6.57143H101.402C102.711 15.6818 109.937 22.9077 119.048 24.2167V70.0208Z" fill="#FAF4F8"/>
<path d="M111.313 28.1458C105.107 25.4277 100.191 20.5125 97.4732 14.3059C96.9988 13.2232 95.9292 12.5238 94.747 12.5238H74.3988C72.7554 12.5238 71.4226 13.8565 71.4226 15.5C71.4226 17.1434 72.7554 18.4762 74.3988 18.4762H92.8652C96.0096 24.6312 100.988 29.6092 107.143 32.7539V70.0208C107.143 99.1467 89.6581 124.278 62.5 134.338C35.342 124.277 17.8572 99.1467 17.8572 70.0208V32.7539C24.0122 29.6092 28.9902 24.6312 32.1348 18.4762H50.6012C52.2447 18.4762 53.5774 17.1434 53.5774 15.5C53.5774 13.8565 52.2447 12.5238 50.6012 12.5238H30.253C29.0709 12.5238 28.0012 13.2235 27.5268 14.3059C24.8087 20.5125 19.8935 25.4277 13.6869 28.1458C12.6045 28.6202 11.9048 29.6902 11.9048 30.872V70.0208C11.9048 101.929 31.6402 129.739 61.5072 140.308C61.8283 140.422 62.164 140.479 62.5 140.479C62.836 140.479 63.1717 140.422 63.4929 140.308C93.3348 129.748 113.095 101.955 113.095 70.0208V30.872C113.095 29.6899 112.396 28.6202 111.313 28.1458Z" fill="#FAF4F8"/>
<path d="M62.5001 44.0714C47.7304 44.0714 35.7144 56.0875 35.7144 70.8571C35.7144 85.6268 47.7304 97.6428 62.5001 97.6428C77.2697 97.6428 89.2858 85.6268 89.2858 70.8571C89.2858 56.0875 77.2697 44.0714 62.5001 44.0714ZM62.5001 91.6905C51.0126 91.6905 41.6667 82.3446 41.6667 70.8571C41.6667 59.3696 51.0126 50.0238 62.5001 50.0238C73.9876 50.0238 83.3334 59.3696 83.3334 70.8571C83.3334 82.3446 73.9876 91.6905 62.5001 91.6905Z" fill="#FAF4F8"/>
<path d="M76.5094 62.8C75.3469 61.6381 73.463 61.6381 72.3002 62.8L59.524 75.5765L55.6761 71.7289C54.5136 70.567 52.6297 70.567 51.4669 71.7289C50.3047 72.8911 50.3047 74.7756 51.4669 75.9381L57.4192 81.8905C58.0008 82.4711 58.7621 82.7619 59.524 82.7619C60.2859 82.7619 61.0472 82.4711 61.6285 81.8902L76.5094 67.0092C77.6716 65.847 77.6716 63.9625 76.5094 62.8Z" fill="#FAF4F8"/>
</svg>
