<svg width="42" height="42" viewBox="0 0 42 42" fill="none" xmlns="http://www.w3.org/2000/svg">
<path fill-rule="evenodd" clip-rule="evenodd" d="M13.3067 15.2425C16.1677 16.2481 18.7878 17.8394 21 19.915C23.2122 17.8394 25.8324 16.2481 28.6933 15.2425C27.8236 10.8968 25.6091 6.93539 22.3638 3.92002C22.0703 3.64512 21.6818 3.49461 21.2798 3.50002H20.7203C20.3183 3.49461 19.9298 3.64512 19.6362 3.92002C16.3909 6.93539 14.1764 10.8968 13.3067 15.2425ZM37.7154 17.9375L38.0476 18.2875C38.3254 18.5301 38.4847 18.8811 38.4847 19.25C38.8918 29.3709 31.1049 37.9439 21 38.5C10.8951 37.9439 3.10818 29.3709 3.51526 19.25C3.51452 18.8722 3.68097 18.5133 3.96986 18.27L4.30207 17.92C4.55269 17.6556 4.89962 17.5041 5.26373 17.5C10.4234 17.2956 15.4329 19.2631 19.0767 22.925C19.7753 23.6452 20.4183 24.4174 21 25.235C21.5817 24.4174 22.2247 23.6452 22.9233 22.925C26.5671 19.2631 31.5766 17.2956 36.7363 17.5C37.1091 17.5039 37.4636 17.6623 37.7154 17.9375Z" fill="url(#paint0_linear)"/>
<defs>
<linearGradient id="paint0_linear" x1="21" y1="3.49988" x2="21" y2="38.5" gradientUnits="userSpaceOnUse">
<stop stop-color="#F58634"/>
<stop offset="1" stop-color="#A8518A" stop-opacity="0.63"/>
</linearGradient>
</defs>
</svg>
