<svg width="79" height="151" viewBox="0 0 79 151" fill="none" xmlns="http://www.w3.org/2000/svg">
<path d="M147.085 93.8286H164.617C162.147 111.389 153.347 127.445 139.867 138.973L139.867 138.973C127.082 149.935 111.026 156.218 95.8197 156.218C85.9031 156.218 75.5304 153.545 65.8242 148.484C55.745 143.221 47.0029 135.722 40.2665 126.562C40.0752 126.3 39.8343 126.08 39.5576 125.911C39.2808 125.743 38.9736 125.631 38.6536 125.582C38.3335 125.532 38.0068 125.546 37.6922 125.623C37.3776 125.7 37.0812 125.838 36.8199 126.029C36.5586 126.221 36.3376 126.462 36.1694 126.739C36.0013 127.015 35.8893 127.322 35.8398 127.643C35.7904 127.963 35.8045 128.289 35.8813 128.604C35.9581 128.919 36.0961 129.215 36.2875 129.476L36.2876 129.476C43.4715 139.246 52.7946 147.244 63.5438 152.857L63.5439 152.857C73.9464 158.281 85.1075 161.15 95.8197 161.15C112.195 161.15 129.417 154.429 143.076 142.717C157.649 130.253 167.093 112.838 169.592 93.8286H188.593C189.038 93.8287 189.474 93.7084 189.856 93.4806C190.238 93.2528 190.552 92.9259 190.763 92.5346C190.974 92.1433 191.076 91.7021 191.057 91.2578C191.038 90.8134 190.899 90.3824 190.655 90.0105L190.53 90.0928L190.655 90.0105L169.901 58.3657C169.677 58.0235 169.371 57.7426 169.011 57.5481C168.651 57.3537 168.248 57.2519 167.839 57.2519C167.43 57.2519 167.027 57.3537 166.667 57.5481L166.738 57.6801L166.667 57.5481C166.307 57.7426 166.001 58.0235 165.777 58.3657L145.022 90.0105L145.148 90.0928L145.022 90.0105C144.778 90.3824 144.64 90.8134 144.621 91.2577C144.602 91.702 144.704 92.1432 144.915 92.5344C145.126 92.9257 145.439 93.2526 145.821 93.4805C146.203 93.7083 146.64 93.8286 147.085 93.8286ZM151.651 88.894L167.839 64.2118L184.027 88.894H151.651Z" fill="#FAF4F8" stroke="#FAF4F8" stroke-width="0.3"/>
<path d="M44.8246 68.1713H27.2927C29.7617 50.6109 38.5625 34.5553 52.0425 23.0272L52.0427 23.0271C64.827 12.0651 80.8832 5.78191 96.0895 5.78191C106.006 5.78191 116.379 8.45524 126.085 13.516C136.164 18.7793 144.906 26.2779 151.643 35.4383C152.029 35.9659 152.609 36.3183 153.256 36.4182C153.902 36.518 154.562 36.357 155.089 35.9705C155.617 35.5841 155.969 35.0038 156.069 34.3574C156.169 33.711 156.008 33.0515 155.622 32.5238L155.622 32.5235C148.438 22.7538 139.115 14.7564 128.365 9.1431L128.365 9.14306C117.963 3.71867 106.802 0.85 96.0895 0.85C79.7144 0.85 62.4919 7.57077 48.8328 19.2829C34.2599 31.747 24.8159 49.1618 22.3173 68.1713H3.31613C2.87138 68.1713 2.4349 68.2916 2.05291 68.5194C1.67092 68.7472 1.35766 69.074 1.14628 69.4654C0.934914 69.8567 0.83331 70.2979 0.852233 70.7422C0.871156 71.1866 1.0099 71.6175 1.25378 71.9895L22.0082 103.634C22.2326 103.976 22.5385 104.257 22.8985 104.452C23.2585 104.646 23.6612 104.748 24.0704 104.748C24.4795 104.748 24.8822 104.646 25.2422 104.452C25.6022 104.257 25.9082 103.976 26.1325 103.634L46.887 71.9895C47.1308 71.6175 47.2696 71.1866 47.2885 70.7422C47.3074 70.2979 47.2058 69.8567 46.9945 69.4654C46.7831 69.074 46.4698 68.7472 46.0878 68.5194C45.7059 68.2916 45.2694 68.1713 44.8246 68.1713ZM7.88226 73.1033H40.2585L24.0706 97.7866L7.88226 73.1033Z" fill="#FAF4F8" stroke="#FAF4F8" stroke-width="0.3"/>
<path d="M138.095 47.3923L138.095 47.3922L97.0429 27.2303L97.0428 27.2302C96.7048 27.0644 96.3333 26.9782 95.9568 26.9782C95.5802 26.9782 95.2087 27.0644 94.8707 27.2302L53.8209 47.3335C53.4064 47.5364 53.0572 47.8515 52.8129 48.243C52.5687 48.6346 52.4392 49.0868 52.4392 49.5483V88.0129C52.4392 93.0258 54.0618 98.5932 56.714 103.609C59.3662 108.625 63.0548 113.102 67.1994 115.928L94.5658 134.593C94.9754 134.872 95.4596 135.021 95.9554 135.021C96.4512 135.021 96.9354 134.872 97.345 134.593L124.712 115.928C128.857 113.102 132.545 108.625 135.198 103.609C137.85 98.5932 139.472 93.0258 139.472 88.0129V49.6066C139.473 49.1457 139.344 48.6939 139.1 48.3024C138.857 47.911 138.508 47.5957 138.095 47.3923ZM69.9777 111.852L69.8932 111.976L69.9777 111.852C66.5692 109.529 63.4157 105.636 61.114 101.283C58.8122 96.9308 57.3711 92.1348 57.3711 88.0129V51.0862L95.9553 32.1901L134.54 51.1417V88.0129C134.54 92.2073 133.128 96.9833 130.841 101.307C128.555 105.631 125.401 109.489 121.933 111.854L95.9554 129.569L69.9777 111.852Z" fill="#FAF4F8" stroke="#FAF4F8" stroke-width="0.3"/>
<path d="M89.2617 93.6687L89.3665 93.5614L89.2617 93.6687C89.7224 94.1183 90.3405 94.37 90.9842 94.37C91.6279 94.37 92.2461 94.1183 92.7067 93.6687L92.6019 93.5614L92.7067 93.6687L115.045 71.8614C115.045 71.8612 115.046 71.861 115.046 71.8607C115.282 71.6358 115.471 71.3662 115.602 71.0677C115.734 70.7688 115.804 70.4469 115.81 70.1205C115.816 69.7941 115.757 69.4698 115.637 69.1664C115.517 68.8629 115.337 68.5864 115.109 68.3528C114.881 68.1192 114.609 67.9332 114.309 67.8056C114.008 67.678 113.685 67.6113 113.359 67.6095C113.032 67.6076 112.709 67.6706 112.407 67.7947C112.105 67.9187 111.831 68.1013 111.601 68.3319C111.601 68.3321 111.6 68.3324 111.6 68.3326L90.9842 88.4596L80.3071 78.0355L80.3071 78.0355L80.3057 78.0342C79.8359 77.587 79.2088 77.3428 78.5603 77.3547C77.9117 77.3666 77.294 77.6335 76.8409 78.0976C76.3877 78.5618 76.1357 79.1858 76.1395 79.8344C76.1432 80.4831 76.4023 81.1041 76.8608 81.563L76.8621 81.5643L89.2617 93.6687Z" fill="#FAF4F8" stroke="#FAF4F8" stroke-width="0.3"/>
</svg>
